<?xml version="1.0" encoding="UTF-8" standalone="no"?>
<svg width="20px" height="50px" viewBox="0 0 14 41" version="1.1" xmlns="http://www.w3.org/2000/svg" xmlns:xlink="http://www.w3.org/1999/xlink">
    <!-- Generator: Sketch 3.6.1 (26313) - http://www.bohemiancoding.com/sketch -->
    <title>arrow-down 2</title>
    <desc>Created with Sketch.</desc>
    <defs></defs>
    <g id="Page-1" stroke="none" stroke-width="1" fill="none" fill-rule="evenodd" opacity="0.639167444">
        <g id="Desktop" transform="translate(-505.000000, -905.000000)" fill="#5D5D5D">
            <g id="Description" transform="translate(0.000000, 551.000000)">
                <g id="arrow-down-2" transform="translate(505.000000, 354.000000)">
                    <g id="Group">
                        <ellipse id="Oval" cx="6.77419355" cy="5.92222222" rx="1.35483871" ry="1.36666667"></ellipse>
                        <path d="M6.77419355,0.227777778 C3.03303226,0.227777778 0,3.28774444 0,7.06202222 L0,18.4490889 C0,22.2233667 3.03303226,25.2833333 6.77419355,25.2833333 C10.5153548,25.2833333 13.5483871,22.2233667 13.5483871,18.4490889 L13.5483871,7.06202222 C13.5483871,3.28774444 10.5153548,0.227777778 6.77419355,0.227777778 L6.77419355,0.227777778 Z M12.6451613,18.4490889 C12.6451613,21.7149667 10.0113548,24.3722222 6.77419355,24.3722222 C3.53703226,24.3722222 0.903225806,21.7149667 0.903225806,18.4490889 L0.903225806,7.06202222 C0.903225806,3.79614444 3.53703226,1.13888889 6.77419355,1.13888889 C10.0113548,1.13888889 12.6451613,3.79614444 12.6451613,7.06202222 L12.6451613,18.4490889 L12.6451613,18.4490889 Z" id="Shape"></path>
                        <path d="M12.7774839,27.2390333 L6.77419355,33.2947333 L0.770903226,27.2390333 C0.594322581,27.0609111 0.308903226,27.0609111 0.132322581,27.2390333 C-0.0442580645,27.4171556 -0.0442580645,27.7050667 0.132322581,27.8831889 L6.45490323,34.2609667 C6.54296774,34.3498 6.65858065,34.3944444 6.77419355,34.3944444 C6.88980645,34.3944444 7.00541935,34.3498 7.09348387,34.2609667 L13.4160645,27.8831889 C13.5926452,27.7050667 13.5926452,27.4171556 13.4160645,27.2390333 C13.2394839,27.0609111 12.9540645,27.0609111 12.7774839,27.2390333 L12.7774839,27.2390333 Z" id="Shape"></path>
                        <path d="M12.7774839,33.6168111 L6.77419355,39.6725111 L0.770903226,33.6168111 C0.594322581,33.4386889 0.308903226,33.4386889 0.132322581,33.6168111 C-0.0442580645,33.7949333 -0.0442580645,34.0828444 0.132322581,34.2609667 L6.45490323,40.6387444 C6.54296774,40.7275778 6.65858065,40.7722222 6.77419355,40.7722222 C6.88980645,40.7722222 7.00541935,40.7275778 7.09348387,40.6387444 L13.4160645,34.2609667 C13.5926452,34.0828444 13.5926452,33.7949333 13.4160645,33.6168111 C13.2394839,33.4386889 12.9540645,33.4386889 12.7774839,33.6168111 L12.7774839,33.6168111 Z" id="Shape"></path>
                    </g>
                </g>
            </g>
        </g>
    </g>
</svg>